<svg width="133" height="111" viewBox="0 0 133 111" fill="none" xmlns="http://www.w3.org/2000/svg">
<path d="M34.439 89.836C34.143 89.9014 33.4108 89.9491 32.8118 89.9435C30.4108 89.918 28.3698 88.9477 26.6135 86.997C25.3251 85.5664 24.8939 84.7901 22.5905 79.7519C20.943 76.1511 20.219 74.4587 19.2437 71.9336C17.2251 66.7047 16.4756 63.4975 16.0963 58.4594C15.8583 55.3088 16.0718 51.3918 16.623 48.7558C16.6739 48.5118 16.7451 48.137 16.7807 47.924C16.8834 47.3119 17.3847 45.5064 17.7203 44.5416C19.3861 39.7597 22.1115 35.8161 25.6312 33.0924C27.303 31.7994 29.8413 30.3122 32.0288 29.3452C32.7315 29.0347 36.3163 27.7405 36.4637 27.7438C36.6783 27.7493 36.303 28.0343 35.4864 28.4835C33.5268 29.5636 29.0664 32.3705 28.5203 32.8662C28.3241 33.0448 27.7302 33.5427 27.2003 33.9741C25.7918 35.1197 24.958 35.9614 23.8708 37.3332C20.9563 41.0084 19.4298 44.9176 18.9112 50.0311C18.5278 53.8094 18.8471 56.6429 20.3227 62.5626C21.9315 69.0214 22.9098 72.3816 23.7874 74.4654C25.14 77.6792 27.4149 79.9527 30.0091 80.6846C31.2641 81.0384 32.9939 80.8399 34.0535 80.2199C34.7868 79.7908 35.7366 78.7006 36.1647 77.7979C36.7871 76.4804 36.9081 75.8272 36.903 73.8189C36.899 71.8804 36.7485 71.002 35.9837 68.4536C35.7946 67.8215 35.639 67.257 35.639 67.2015C35.639 67.0141 36.6 65.9772 37.2152 65.5004C38.5739 64.449 41.28 63.2458 43.3607 62.7667C44.6563 62.4684 46.8142 62.475 49.5712 62.7833C50.7173 62.912 51.7474 63.0395 51.8593 63.0672C52.0342 63.1105 53.6552 63.2846 59.6898 63.9134C60.3051 63.9766 60.8654 64.0875 60.9346 64.1574C61.0861 64.3137 62.699 69.8265 63.0468 71.3791C63.183 71.989 63.3864 73.1113 63.4973 73.8743C63.8359 76.1821 64.1471 77.0294 64.9454 77.8168C66.2735 79.1243 68.1224 78.949 69.4769 77.3876C70.7715 75.8949 71.2708 73.6558 71.0339 70.4054C70.9057 68.6366 70.7349 67.3801 70.3444 65.3085C70.198 64.5311 70.0983 63.8724 70.1237 63.8457C70.1481 63.8191 70.5793 63.7238 71.0817 63.635C71.5841 63.5452 72.06 63.4554 72.1403 63.4332C72.3935 63.3656 72.5451 63.92 72.7708 65.7355C72.9559 67.2259 72.9915 68.0621 72.9976 71.1573C73.0068 75.0132 72.9193 76.2143 72.4281 79.0311C72.1464 80.648 72.0824 81.6572 72.2654 81.5807C72.6274 81.4287 73.2376 78.7173 73.5895 75.7041C73.7847 74.0307 73.7522 68.244 73.5366 66.2156C73.442 65.3274 73.32 64.4302 73.264 64.2206C73.14 63.7459 73.1349 63.228 73.2549 63.228C73.44 63.228 73.8559 65.5037 74.1264 67.9967C74.2159 68.8195 74.34 69.893 74.401 70.381C74.463 70.869 74.5352 72.9217 74.5617 74.9434C74.6135 78.8537 74.5291 80.0203 74.0847 81.5895C73.1115 85.0252 70.9647 87.343 67.9708 88.1891C67.2488 88.3932 66.9335 88.4187 65.699 88.3743C64.4918 88.3322 64.14 88.2767 63.4647 88.0261C60.8847 87.0701 58.8478 84.7435 58.0952 81.8945C57.7718 80.6724 57.6549 78.8559 57.7891 77.1636C57.8532 76.3607 57.9529 75.0299 58.0118 74.207C58.0698 73.3841 58.1634 72.3084 58.2173 71.8171C58.4257 69.9496 58.2864 68.112 57.8705 67.2426C57.6091 66.6936 56.939 66.0138 56.4203 65.7721C55.7969 65.4804 55.3078 65.5015 54.7576 65.8452C53.8902 66.3864 52.7725 66.7091 51.1474 66.8888C50.5881 66.9498 49.9017 67.0474 49.622 67.1039C48.962 67.2381 46.9708 67.2415 46.0627 67.1106C45.6712 67.054 44.6878 66.9753 43.8763 66.9354C42.3427 66.8611 41.7203 66.9631 40.6027 67.4755C39.7779 67.8525 38.8241 69.099 38.5383 70.1714C38.4508 70.5008 38.34 70.7691 38.2922 70.7691C38.1468 70.7691 38.0705 69.6435 38.1722 68.9837C38.4335 67.2825 39.0569 66.6415 40.9546 66.1203C41.7559 65.9007 42.1718 65.8708 45.0224 65.8297C48.3163 65.7809 48.4525 65.7665 50.9949 65.1699C52.1532 64.8971 52.4013 64.876 53.7915 64.9281C55.6169 64.9969 56.1427 65.1366 57.6793 65.9561C60.6905 67.5631 61.0871 69.374 59.6695 75.0387C58.6057 79.2851 58.5915 79.3871 58.8742 80.8521C59.3074 83.0966 60.9386 85.3834 62.7813 86.3271C63.4952 86.6931 63.7718 86.774 64.4593 86.8173C65.3542 86.875 65.7335 86.7252 65.6074 86.3659C65.5271 86.1364 65.2932 86.0366 64.2661 85.7926C63.1078 85.5164 62.4315 85.1361 61.7207 84.3587C60.5949 83.1288 59.9471 81.8091 59.7335 80.3087C59.6003 79.366 59.6563 78.7439 59.9949 77.4231C60.1281 76.9052 60.4556 75.5566 60.723 74.4288C61.203 72.4016 61.2091 72.3561 61.2122 70.6028C61.2152 68.8329 61.2142 68.8262 60.8888 68.0743C60.4078 66.962 59.5576 66.0892 58.1644 65.2752C55.7054 63.838 53.341 63.6007 50.0796 64.4623C48.6122 64.8505 46.9566 64.9947 43.9068 64.9991C41.8434 65.0024 41.341 65.0723 40.1135 65.5225C38.3613 66.1669 37.6312 67.0463 37.3657 68.8329C37.1512 70.2734 37.3973 71.5776 38.4803 74.7515C39.002 76.2819 39.1983 77.4586 39.1983 79.0655C39.1983 80.088 39.1464 80.7035 39.0122 81.2568C38.3796 83.8796 36.84 86.1475 34.8335 87.4139C33.8481 88.0361 33.663 88.2379 33.9651 88.3632C34.4288 88.5573 36 87.5514 37.1166 86.3438C37.9952 85.3945 38.6644 84.2866 39.2908 82.7462C39.8044 81.4831 39.9122 80.9386 39.9752 79.3083C40.023 78.0452 39.9986 77.6393 39.8186 76.7122C39.7017 76.1078 39.6051 75.54 39.6051 75.4513C39.6051 74.9633 40.1552 76.0956 40.6708 77.6449C41.159 79.1132 41.2729 81.4698 40.9302 83.0235C40.1583 86.5312 37.6952 89.1151 34.439 89.836ZM33.2207 52.3112C32.5007 52.7404 32.403 52.7636 32.3186 52.523C32.218 52.2369 32.4915 50.2562 32.7457 49.44C33.2329 47.8675 34.503 46.1352 35.9166 45.1139C37.4318 44.0193 41.7 41.5928 45.7068 39.5478C46.6302 39.0776 48.1505 38.2736 49.0871 37.7635C50.0237 37.2522 50.8708 36.8342 50.9705 36.8342C51.1708 36.8342 51.4891 37.5827 54.2044 44.4573C55.4207 47.5359 55.7237 48.3998 55.6342 48.5295C55.5376 48.6704 55.3525 48.6792 54.4017 48.5905C52.3241 48.3953 48.0813 48.3299 46.6729 48.4719C45.18 48.6216 42.9041 48.9565 41.6898 49.2049C38.881 49.7794 35.1935 51.1312 33.2207 52.3112ZM79.8813 54.6611C79.8783 54.6766 79.8295 54.6888 79.7715 54.6888C79.6515 54.6888 79.6363 54.6434 79.4715 53.7684C79.2559 52.6217 78.6152 51.4129 77.6969 50.4192C76.7979 49.4478 76.1613 49.0197 75.119 48.6859C74.1732 48.3831 72.4108 48.3 71.4864 48.514C68.2851 49.2537 66.5837 49.4888 66.4007 49.216C66.3407 49.1273 66.1393 48.4375 65.9522 47.6845C65.343 45.227 64.5427 42.2482 64.0068 40.4417C63.1586 37.5883 61.3068 32.1454 60.8013 31.0231C60.721 30.8456 60.6559 30.6427 60.6559 30.5717C60.6559 30.5007 61.262 30.0006 62.0034 29.4605C64.8366 27.3967 66.0722 25.5513 66.3488 22.9718C66.7027 19.6682 64.9088 16.5031 62.0379 15.3664C61.0098 14.9605 59.7864 14.813 58.798 14.9783C57.4291 15.2067 56.4315 15.6869 55.0485 16.7815C54.6773 17.0753 54.3163 17.316 54.2451 17.316C54.1749 17.316 53.9064 17.1042 53.6491 16.8447C53.3908 16.5852 53.0196 16.2425 52.8244 16.0817L52.4695 15.7911L52.9749 14.9916C55.1542 11.5448 57.54 10.0044 60.7068 10C63.243 9.99668 65.1376 10.8628 66.8217 12.7958C67.802 13.9225 68.3339 14.9184 68.822 16.5397C69.0061 17.1552 69.0386 17.5278 69.0407 19.0904C69.0427 20.6951 69.0142 21.0222 68.8078 21.7519C68.5281 22.7378 67.7146 24.6353 67.5702 24.6353C67.5335 24.6353 67.5071 24.6353 67.4929 24.6209C67.4552 24.5799 67.5183 24.4268 67.7552 23.8446L67.7563 23.8413C68.042 23.1415 68.3766 21.8994 68.582 20.7727C68.9207 18.9163 68.4203 16.3645 67.4278 14.8906C66.5786 13.6286 65.5068 12.7858 64.0017 12.1947C63.4139 11.964 63.1739 11.9385 61.5203 11.9385C60.2786 11.9374 59.5424 11.9851 59.2322 12.0871C57.8349 12.5429 57.3569 12.7337 56.4203 13.2127C55.2376 13.8183 53.4783 15.0248 53.3257 15.3353C53.22 15.5527 53.2749 15.7634 53.4386 15.7634C53.4895 15.7634 53.9329 15.4695 54.4241 15.1091C54.9152 14.7498 55.7288 14.233 56.2322 13.9602C57.0864 13.4978 57.3539 13.3857 58.6668 12.9388C58.9424 12.8457 59.7234 12.6849 60.4007 12.5828C61.5518 12.4109 61.7064 12.4109 62.7285 12.5828C65.3979 13.0331 67.1207 14.5768 67.8264 17.1519C68.0613 18.0069 68.1427 20.0352 67.9779 20.9202C67.9088 21.2862 67.8315 21.7353 67.8051 21.9183C67.7247 22.4606 67.0708 24.3481 66.662 25.2153C66.003 26.6126 65.3441 27.5231 63.6885 29.3197C62.8037 30.28 62.0796 31.1462 62.0796 31.2438C62.0796 31.3425 62.2088 31.6053 62.3674 31.8282C62.7386 32.3494 63.5847 33.8998 64.0434 34.9001C65.3725 37.8001 66.0874 40.8975 66.2298 44.3753L66.3 46.0942L66.5776 46.1286C66.7302 46.1485 67.3485 46.011 67.9515 45.8247C69.6813 45.2913 70.9485 45.1183 72.6051 45.1926C76.1796 45.3534 78.7424 46.9891 79.7502 49.7539C79.9942 50.4248 80.1824 51.4761 80.1773 52.1448C80.1752 52.5097 79.9983 54.009 79.8813 54.6611ZM33.3356 51.0813C33.4017 51.2687 33.8135 51.3109 33.9661 51.1467C34.4095 50.6688 37.743 49.2637 39.6051 48.7702C43.3302 47.7821 47.0278 47.5902 52.4949 48.1004C53.2312 48.1691 53.3339 48.1569 53.3339 47.9983C53.3339 47.6667 52.8864 47.5004 51.4525 47.2974C49.4471 47.0135 44.3471 47.0102 42.6559 47.2919C41.1437 47.5436 39.4373 47.9628 38.1996 48.3865C37.0413 48.7835 34.8966 49.7505 34.4888 50.0599C33.8786 50.5235 34.0668 49.9102 34.8824 48.7779C35.8932 47.3729 37.1654 46.5067 41.1813 44.4873C41.5729 44.2899 42.4647 43.8418 43.1644 43.4914C45.6427 42.2471 47.043 41.4154 48.8074 40.1389C49.4776 39.6532 50.0695 39.2473 50.1234 39.2373C50.1763 39.2274 50.2515 39.3937 50.2912 39.6066C50.3308 39.8196 50.4407 40.2698 50.5342 40.6047C50.6288 40.9396 50.7305 41.3766 50.76 41.5751C50.8068 41.89 50.7854 41.9355 50.5902 41.9355C50.4671 41.9355 49.9474 42.154 49.4349 42.4212C48.9224 42.6885 48.2512 43.0179 47.9441 43.1532C47.6369 43.2896 47.2932 43.4448 47.1813 43.4981C46.8518 43.6578 45.2756 44.2744 44.9441 44.3731C44.7763 44.423 44.5017 44.5128 44.3339 44.5727C44.1661 44.6326 43.7542 44.7712 43.4186 44.8799C42.1586 45.288 41.639 45.5175 41.639 45.665C41.639 45.8646 42.2176 45.8635 43.1268 45.6617C44.7732 45.2957 45.1129 45.2458 48.0457 44.9287C48.5776 44.871 49.68 44.8233 50.4976 44.8222L51.9824 44.8189L52.5041 45.8181C53.1274 47.0113 53.7366 47.924 53.9085 47.924C54.1535 47.924 54.1373 47.7277 53.8495 47.2331C52.9851 45.746 52.2305 43.9594 51.3549 41.3256C51.0915 40.5326 50.8007 39.7087 50.7091 39.4957C50.6176 39.2828 50.5179 38.9834 50.4885 38.8314C50.4579 38.6795 50.3593 38.5398 50.2678 38.5209C50.1773 38.5021 49.6281 38.8048 49.0485 39.1941C47.1966 40.4395 45.6346 41.381 44.0481 42.2083C41.6674 43.4515 40.5091 44.0426 40.4532 44.0426C40.4257 44.0426 39.6173 44.4651 38.6563 44.983C36.6529 46.0609 35.4244 47.0036 34.5844 48.107C33.7637 49.1849 33.1678 50.6044 33.3356 51.0813ZM80.339 56.4921C79.9017 57.2783 79.4695 57.8328 79.4695 57.6099C79.4695 57.204 79.7308 56.1095 79.9291 55.6814C80.5007 54.4526 80.6268 53.8371 80.6329 52.2491C80.639 50.641 80.52 50.0012 80.0003 48.8667C78.5491 45.6983 75.0661 43.9749 70.9149 44.3719C69.7718 44.4806 67.9566 44.9043 67.4929 45.1704C67.3525 45.2503 67.2295 45.2625 67.1786 45.1992C67.1339 45.1427 67.0434 44.3974 66.9793 43.5435C66.8227 41.4487 66.3254 38.9934 65.7844 37.6348C65.6257 37.2367 65.5851 36.7233 65.7254 36.8952C65.8302 37.0238 66.9122 39.8218 67.4176 41.2701C67.62 41.8501 67.8518 42.4811 67.9322 42.673C68.0135 42.8648 68.0796 43.0966 68.0796 43.1875C68.0796 43.2785 68.1671 43.4703 68.2739 43.6145C68.4559 43.8585 68.4915 43.8662 68.8078 43.7276C70.6657 42.9125 71.8586 42.6641 73.56 42.7406C76.3515 42.8659 78.6203 44.118 80.1478 46.3759C81.844 48.8833 82.1451 52.2125 80.9532 55.2666C80.8647 55.4929 80.5881 56.044 80.339 56.4921ZM29.8424 88.6294C29.9827 88.7414 30.2491 88.8356 30.4342 88.839C31.0078 88.8501 30.7891 88.5362 29.639 87.6956C27.5105 86.1408 25.7013 83.7687 23.7956 80.0392C22.8956 78.2759 21.4088 74.7759 20.8485 73.098C19.7024 69.6646 19.0485 67.3679 18.5593 65.0579C18.4434 64.5089 18.3041 63.8602 18.2512 63.6162C18.0956 62.9087 17.8596 61.4725 17.7396 60.511C17.2668 56.7194 17.2332 56.3179 17.2332 54.3528C17.2322 52.8513 17.2881 51.8809 17.4417 50.7486C17.5566 49.8969 17.7142 48.7003 17.7925 48.0904C17.8698 47.4804 17.9624 46.8062 17.9969 46.5932C18.0386 46.3348 18.0112 46.1341 17.9146 45.9922C17.7722 45.7848 17.7641 45.787 17.5983 46.0609C17.5057 46.2162 17.3868 46.6121 17.3339 46.9392C17.282 47.2675 17.1457 48.0848 17.0329 48.7558C16.5641 51.5227 16.4857 52.3101 16.4796 54.3007C16.4766 55.3986 16.5325 56.7704 16.6047 57.3504C17.1935 62.0481 17.3186 62.8399 17.8485 65.1965C18.8918 69.8332 20.2281 73.8543 22.2427 78.4189C23.2098 80.6081 25.2254 84.0426 26.3929 85.4909C27.1769 86.4624 28.202 87.4516 29.0288 88.0327C29.3359 88.249 29.702 88.5185 29.8424 88.6294ZM44.461 23.7182C44.0552 23.9466 43.6891 24.1518 43.6464 24.1729C43.5722 24.2095 43.3718 23.7614 43.2193 23.2169C43.1552 22.9896 43.1746 22.9707 43.3993 23.0317C43.74 23.1249 43.8315 22.9175 43.6129 22.5526C43.3647 22.1401 43.3668 19.2911 43.6159 18.1477C44.2393 15.2766 45.6061 13.7051 47.7671 13.3724C48.0335 13.3314 48.2766 13.2538 48.3071 13.1994C48.3376 13.1462 48.4474 13.1018 48.5522 13.1018C48.7902 13.1018 50.1315 14.0766 50.5373 14.5435L50.8424 14.8962L50.3339 14.803C49.3993 14.6322 48.0518 14.7143 47.4102 14.9816C46.26 15.4607 45.3051 16.7504 44.9318 18.3263C44.7346 19.1647 44.7946 21.2939 45.0468 22.3464C45.1302 22.6968 45.1983 23.0539 45.1983 23.1426C45.1983 23.2302 44.8668 23.4886 44.461 23.7182ZM42.7596 20.0607C42.7576 20.4733 42.6081 20.542 42.5166 20.1716C42.483 20.0341 42.4546 19.2423 42.4535 18.4117C42.4515 16.2358 42.8013 15.1391 43.863 13.9901C44.639 13.1506 45.4251 12.7525 46.4441 12.6838C46.9027 12.6516 47.2322 12.6738 47.2322 12.7337C47.2322 12.7913 46.9637 12.9255 46.6363 13.0331C45.84 13.2926 45.1118 13.846 44.4874 14.6644C43.9118 15.4185 43.5396 16.1571 43.2468 17.1341C43.0332 17.8405 42.7627 19.4708 42.7596 20.0607ZM63.662 32.3472C64.1888 33.4107 64.0454 33.4384 63.3996 32.3982C63.0935 31.9036 62.7996 31.4323 62.7478 31.3491C62.6766 31.2382 62.9278 30.9122 63.7139 30.0915C64.2966 29.4827 65.0024 28.682 65.28 28.3127C65.5586 27.9445 65.8057 27.6639 65.8302 27.6906C65.8546 27.7172 65.7986 27.8303 65.7061 27.9423C65.6135 28.0543 65.5373 28.1852 65.5373 28.2329C65.5373 28.3493 64.6312 29.6102 63.8918 30.5229C63.5664 30.9244 63.3 31.3347 63.3 31.4345C63.3 31.5343 63.4627 31.9457 63.662 32.3472Z" fill="#4C0B38"/>
<path d="M70.8864 68.7752C70.9444 69.2942 70.9922 69.8221 71.0339 70.4054C71.2709 73.6558 70.7715 75.8949 69.477 77.3876C68.1224 78.949 66.2736 79.1243 64.9454 77.8168C64.1471 77.0294 63.8359 76.1821 63.4973 73.8743C63.3864 73.1113 63.1831 71.989 63.0468 71.3791C62.699 69.8265 61.0861 64.3137 60.9346 64.1574C60.8654 64.0875 60.3051 63.9766 59.6898 63.9134C53.6553 63.2846 52.0342 63.1105 51.8593 63.0672C51.7475 63.0395 50.7173 62.912 49.5712 62.7833C46.8142 62.475 44.6563 62.4684 43.3607 62.7667C41.28 63.2458 38.5739 64.449 37.2153 65.5004C36.6 65.9772 35.639 67.0141 35.639 67.2015C35.639 67.257 35.7946 67.8215 35.9837 68.4536C36.7485 71.002 36.899 71.8804 36.9031 73.8189C36.9081 75.8272 36.7871 76.4804 36.1648 77.7979C35.7366 78.7006 34.7868 79.7907 34.0536 80.2199C32.9939 80.8399 31.2641 81.0384 30.0092 80.6846C27.4149 79.9527 25.14 77.6792 23.7875 74.4654C22.9098 72.3816 21.9315 69.0214 20.3227 62.5626C18.8471 56.6429 18.5278 53.8094 18.9112 50.0311C19.4298 44.9176 20.9563 41.0084 23.8709 37.3332C24.958 35.9614 25.7919 35.1197 27.2003 33.9741C27.7302 33.5427 28.3241 33.0448 28.5203 32.8662C28.557 32.8329 28.6109 32.7897 28.681 32.7376C28.6658 32.7509 28.6556 32.762 28.6515 32.7697C28.6119 32.8396 28.7146 32.8008 28.8803 32.6821C30.0386 31.8537 34.1675 29.3296 36.2248 28.1929C37.0231 27.7516 37.801 27.2769 37.9536 27.1383C38.1071 26.9997 38.4051 26.8233 38.6176 26.749C38.9512 26.6304 40.3119 25.945 42.6305 24.7285C42.9803 24.5455 43.2661 24.3459 43.2661 24.286C43.2661 24.2261 43.3464 24.205 43.4461 24.2394C43.6566 24.3126 45.1851 23.4709 45.2675 23.2358C45.299 23.1493 45.2492 22.7556 45.1586 22.3608C44.8953 21.2185 44.8322 19.1791 45.0336 18.3263C45.4037 16.7604 46.2844 15.5638 47.4153 15.088C47.8698 14.8962 48.2248 14.8418 49.0627 14.833C50.159 14.8208 50.7071 14.9494 51.6559 15.4418C51.8797 15.5583 52.1217 15.6525 52.1929 15.6525C52.2651 15.6525 52.3485 15.7246 52.38 15.8133C52.4115 15.902 52.6048 16.0784 52.8092 16.2048L53.1814 16.4355L52.8275 16.1094L52.5803 15.8821L52.8244 16.0817C53.0197 16.2425 53.3909 16.5852 53.6492 16.8447C53.9064 17.1042 54.1749 17.316 54.2451 17.316C54.3163 17.316 54.6773 17.0753 55.0485 16.7815C56.4315 15.6869 57.4292 15.2067 58.798 14.9783C59.7864 14.813 61.0098 14.9605 62.038 15.3664C64.9088 16.5031 66.7027 19.6682 66.3488 22.9718C66.0722 25.5513 64.8366 27.3967 62.0034 29.4605C61.262 30.0006 60.6559 30.5007 60.6559 30.5717C60.6559 30.6427 60.721 30.8456 60.8014 31.0231C61.3068 32.1454 63.1587 37.5883 64.0068 40.4417C64.5427 42.2482 65.3431 45.227 65.9522 47.6845C66.1393 48.4375 66.3407 49.1273 66.4007 49.216C66.5837 49.4888 68.2851 49.2537 71.4864 48.514C72.4109 48.3 74.1732 48.3831 75.119 48.6859C75.2725 48.7347 75.417 48.7868 75.5553 48.8412C75.5868 48.8877 75.8563 49.063 76.1959 49.2537C77.1946 49.8148 78.301 51.058 78.8319 52.2158C79.0617 52.716 79.3037 53.4146 79.3698 53.7684C79.4359 54.1222 79.5448 54.6778 79.6129 55.0027C79.7431 55.627 79.6668 56.2326 79.2956 57.5445C79.2051 57.865 79.1603 58.1589 79.1949 58.1966C79.3434 58.3596 78.3132 60.0253 77.6227 60.7395C76.92 61.467 76.5061 61.7908 75.7576 62.1989C75.002 62.6114 73.4959 63.1482 73.3566 63.0539C73.2997 63.0162 73.1675 63.0695 73.0627 63.1726C72.958 63.2757 72.8268 63.3301 72.7709 63.2924C72.7159 63.2547 72.6407 63.2757 72.6051 63.3389C72.5644 63.4099 72.479 63.4155 72.3753 63.3511C72.2827 63.2957 72.1109 63.2913 71.9878 63.3423C71.8658 63.3922 71.4407 63.4687 71.0431 63.5108C70.559 63.563 70.2834 63.5796 70.1542 63.7371C69.9864 63.9433 70.0658 64.3891 70.258 65.466C70.2712 65.5358 70.2834 65.6068 70.2966 65.6811C70.5976 67.3712 70.7685 68.4647 70.859 69.272C70.8946 69.5848 70.8976 69.5814 70.9119 69.2166C70.9149 69.1267 70.9058 68.9748 70.8864 68.7752ZM33.2207 52.3112C35.1936 51.1312 38.881 49.7794 41.6898 49.2049C42.9041 48.9565 45.18 48.6216 46.6729 48.4719C48.0814 48.3299 52.3241 48.3953 54.4017 48.5905C55.3525 48.6792 55.5376 48.6704 55.6342 48.5295C55.7237 48.3998 55.4207 47.5359 54.2044 44.4573C51.4892 37.5827 51.1709 36.8342 50.9705 36.8342C50.8709 36.8342 50.0237 37.2522 49.0871 37.7635C48.1505 38.2736 46.6302 39.0776 45.7068 39.5478C41.7 41.5928 37.4319 44.0193 35.9166 45.1139C34.5031 46.1352 33.2329 47.8675 32.7458 49.44C32.4915 50.2562 32.218 52.2369 32.3187 52.523C32.4031 52.7636 32.5007 52.7404 33.2207 52.3112ZM57.539 23.7991C57.6112 24.0054 57.8481 24.022 57.9844 23.8313C58.0383 23.7548 58.1898 23.4043 58.321 23.0528C58.5437 22.4561 58.5478 22.3996 58.3902 22.2288C58.2336 22.0569 58.2081 22.0569 58.021 22.2421C57.7861 22.4739 57.4515 23.5518 57.539 23.7991ZM58.137 20.9568C58.3231 21.1597 58.5529 21.0666 58.7024 20.7272C58.8509 20.389 58.7248 19.9776 58.4736 19.9776C58.1003 19.9776 57.8654 20.6607 58.137 20.9568ZM78.6102 51.6214C79.0231 52.2912 79.3159 53.001 79.4563 53.6896C79.3515 53.2782 79.1431 52.6849 78.9468 52.2502C78.8532 52.045 78.7403 51.8332 78.6102 51.6214ZM31.2509 31.0342C32.7325 30.0982 34.4553 29.0524 35.4864 28.4835C35.5607 28.4425 35.6309 28.4036 35.698 28.3648C35.6105 28.4158 35.517 28.468 35.4163 28.5234C34.4624 29.0513 32.7254 30.1059 31.2509 31.0342ZM80.0359 53.5965C80.0898 53.1673 80.1376 52.7282 80.162 52.4309C80.1448 52.7592 80.1031 53.1296 80.0359 53.5965ZM80.1509 51.6192C80.1051 51.1456 80.0034 50.6011 79.8732 50.1409C79.9525 50.4115 80.0176 50.6909 80.0664 50.9804C80.1061 51.2088 80.1336 51.4162 80.1509 51.6192ZM79.5854 49.3424C79.1726 48.4031 78.5675 47.6069 77.7946 46.9714C78.5726 47.6102 79.1787 48.4075 79.5854 49.3424ZM79.8814 54.6611C79.8834 54.6489 79.8854 54.6367 79.8875 54.6234C79.8844 54.6511 79.8814 54.6667 79.8814 54.67C79.8793 54.6811 79.862 54.6855 79.8356 54.6833C79.862 54.6778 79.8793 54.67 79.8814 54.6611ZM36.4485 27.8769C36.541 27.7926 36.5492 27.746 36.4637 27.7438C36.5502 27.746 36.5431 27.7915 36.4485 27.8769Z" fill="#52D7BC"/>
</svg>
